<?xml version="1.0" standalone="no"?>
<!DOCTYPE svg PUBLIC "-//W3C//DTD SVG 20010904//EN"
 "http://www.w3.org/TR/2001/REC-SVG-20010904/DTD/svg10.dtd">
<svg version="1.0" xmlns="http://www.w3.org/2000/svg"
 width="1920.000000pt" height="1920.000000pt" viewBox="0 0 1920.000000 1920.000000"
 preserveAspectRatio="xMidYMid meet">
<metadata>
Created by potrace 1.14, written by Peter Selinger 2001-2017
</metadata>
<g transform="translate(0.000000,1920.000000) scale(0.100000,-0.100000)"
fill="#000000" stroke="none">
<path d="M9181 14563 c-6 -11 -11 -13 -11 -5 0 9 -5 10 -19 2 -14 -7 -22 -7
-26 0 -4 7 -11 7 -18 2 -7 -5 -22 -8 -34 -7 -13 1 -23 -1 -23 -4 0 -3 -24 -7
-53 -9 -28 -2 -69 -4 -89 -5 -21 -1 -38 -5 -38 -8 0 -3 -12 -6 -27 -5 -16 1
-41 -4 -58 -10 -16 -6 -39 -10 -50 -8 -10 1 -24 -1 -30 -5 -5 -5 -20 -7 -33
-6 -29 2 -53 -31 -46 -62 4 -13 0 -31 -7 -41 -11 -14 -9 -13 9 2 23 20 31 10
10 -13 -10 -11 -10 -13 0 -7 11 7 18 -12 13 -38 -1 -5 5 -3 14 4 8 7 18 10 22
6 3 -3 0 -6 -7 -6 -9 0 -7 -5 6 -16 19 -15 19 -16 -1 -10 -18 5 -17 4 4 -14
14 -12 18 -20 10 -20 -11 0 -11 -2 1 -10 8 -5 11 -10 6 -10 -5 0 -2 -8 5 -17
12 -15 12 -16 -1 -8 -8 5 0 -9 18 -32 23 -29 29 -44 21 -49 -7 -4 -9 -3 -5 4
3 6 3 13 -2 16 -18 11 -8 -25 12 -41 20 -17 20 -17 7 0 -9 11 -10 17 -2 17 14
0 12 7 20 -107 1 -7 9 -13 19 -13 14 0 15 -2 2 -10 -13 -8 -12 -10 3 -10 15 0
16 -4 7 -20 -9 -16 -8 -19 7 -13 12 5 15 2 10 -10 -3 -9 -2 -19 4 -22 5 -4 7
-10 4 -15 -7 -12 26 -29 45 -23 9 3 8 0 -4 -9 -18 -14 -14 -44 4 -33 5 3 11
-3 15 -14 3 -11 12 -22 20 -25 8 -3 12 -12 9 -21 -4 -10 0 -15 11 -15 14 0 15
-3 5 -15 -8 -10 -9 -15 -2 -15 6 0 9 -7 5 -15 -3 -9 -2 -15 3 -14 5 1 16 1 24
0 12 -1 11 -4 -3 -12 -17 -10 -16 -13 13 -31 23 -14 31 -24 27 -38 -3 -13 -1
-18 6 -13 7 4 8 0 4 -11 -4 -9 -3 -15 1 -12 4 2 14 1 22 -5 11 -6 11 -9 2 -9
-10 0 -10 -3 0 -14 10 -10 15 -11 21 -2 6 7 7 4 3 -6 -6 -21 3 -50 14 -43 11
7 7 -29 -5 -38 -5 -5 1 -5 15 -1 22 6 23 5 12 -9 -9 -10 -10 -17 -2 -22 6 -3
7 -11 4 -17 -4 -7 -2 -8 5 -4 7 5 20 -2 33 -16 11 -12 24 -22 29 -21 4 2 6 -4
2 -13 -5 -14 -9 -13 -25 7 l-19 24 11 -24 c7 -13 21 -26 31 -28 10 -3 19 -14
19 -25 0 -10 4 -17 9 -13 5 3 13 0 17 -6 4 -7 3 -9 -4 -5 -6 3 -13 2 -17 -4
-3 -5 3 -10 14 -10 14 0 21 -6 21 -20 0 -11 5 -20 10 -20 6 0 10 -7 10 -15 0
-9 10 -26 21 -38 12 -12 18 -15 14 -7 -8 13 -7 13 8 1 13 -10 14 -17 7 -26 -8
-10 -5 -17 11 -29 12 -8 26 -13 31 -10 4 3 8 -4 8 -14 0 -11 7 -23 16 -26 14
-5 14 -9 3 -23 -12 -14 -12 -16 0 -8 11 6 13 3 9 -13 -4 -12 -2 -20 3 -16 5 3
9 0 9 -6 0 -7 7 -10 15 -7 8 4 17 1 21 -5 4 -7 3 -8 -4 -4 -7 4 -12 2 -12 -3
0 -11 15 -15 34 -12 5 1 4 -5 -4 -13 -10 -13 -10 -16 1 -18 8 0 19 -2 24 -3 6
-2 15 -3 20 -4 6 -1 1 -9 -10 -17 -20 -16 -20 -16 3 -9 21 6 23 5 13 -13 -10
-18 -8 -20 9 -17 26 5 42 -24 28 -50 -9 -16 -8 -18 2 -8 10 9 18 6 37 -13 13
-13 29 -24 35 -24 7 0 6 -5 -2 -15 -7 -8 -10 -16 -6 -16 3 -1 10 -2 15 -3 6 0
16 -7 23 -15 7 -8 8 -11 3 -8 -6 3 -11 -3 -11 -13 0 -14 4 -16 17 -9 26 13 33
11 19 -6 -12 -14 -5 -20 22 -17 3 1 9 -5 12 -13 3 -9 0 -12 -10 -8 -7 3 -14 1
-14 -5 0 -6 11 -9 25 -8 13 2 22 -1 19 -5 -4 -8 8 -13 27 -11 3 1 6 -6 6 -14
0 -10 -4 -11 -11 -4 -5 5 -15 10 -21 10 -5 0 2 -8 18 -18 15 -10 26 -20 25
-23 -2 -2 1 -1 7 3 13 11 25 10 25 -3 0 -5 -4 -7 -10 -4 -5 3 -10 1 -10 -4 0
-6 4 -11 10 -11 5 0 7 -7 3 -15 -3 -9 -2 -15 3 -14 28 5 35 -1 23 -22 -7 -14
-7 -19 0 -15 10 7 34 -27 26 -38 -3 -3 -2 -4 2 -1 3 3 14 -2 24 -11 10 -9 25
-14 34 -10 9 3 13 2 10 -3 -3 -6 3 -14 12 -20 10 -6 13 -11 8 -11 -6 0 -17 6
-24 13 -10 10 -11 9 -6 -5 4 -10 17 -18 31 -18 13 0 24 -5 24 -11 0 -5 -6 -7
-12 -3 -7 4 -1 -6 15 -23 15 -16 24 -32 21 -36 -4 -3 7 -5 24 -2 17 2 31 0 29
-3 -3 -11 51 -61 58 -53 4 3 6 1 5 -4 -5 -22 1 -42 16 -61 14 -18 14 -18 3 6
-11 22 -10 23 3 13 8 -7 17 -10 21 -7 3 3 3 -3 1 -14 -4 -12 0 -22 12 -26 12
-5 15 -3 8 7 -5 7 -1 4 8 -6 11 -12 24 -17 35 -13 10 4 14 4 10 0 -4 -4 -1
-14 6 -23 11 -14 10 -15 -8 -1 -19 14 -19 14 -6 -3 10 -13 17 -14 26 -7 10 8
15 8 21 -1 5 -8 3 -9 -6 -4 -8 5 -11 3 -8 -6 3 -8 11 -13 18 -11 8 2 11 -4 7
-17 -4 -15 0 -19 14 -16 22 4 24 -5 7 -25 -11 -12 -10 -12 3 -2 14 10 18 10
22 -3 4 -9 13 -12 23 -8 12 4 15 3 10 -5 -7 -11 13 -17 39 -12 6 1 4 -4 -2
-11 -7 -7 -13 -18 -13 -23 0 -6 5 -4 10 4 9 13 11 13 19 0 5 -8 8 -17 5 -22
-2 -4 4 -12 15 -17 27 -15 41 -13 16 2 -11 7 -21 19 -23 27 -2 8 9 2 24 -14
23 -23 26 -29 14 -37 -11 -8 -8 -8 10 -3 23 6 24 6 10 -11 -13 -17 -13 -18 0
-10 8 5 28 10 44 11 20 1 24 -1 15 -7 -11 -7 -10 -9 4 -9 9 0 17 -5 17 -10 0
-6 3 -9 8 -9 19 3 23 -2 12 -16 -11 -13 -10 -14 5 -9 12 5 16 4 12 -3 -8 -13
20 -26 36 -16 7 3 9 3 5 -2 -8 -9 15 -35 32 -35 6 0 8 -4 5 -10 -3 -5 -1 -10
5 -10 6 0 8 -6 5 -12 -4 -7 1 -4 11 7 14 16 16 17 11 3 -4 -12 1 -22 16 -29
20 -11 21 -11 8 5 -12 14 -12 16 3 10 9 -3 16 -10 16 -15 0 -5 7 -9 16 -9 10
0 14 -6 11 -14 -4 -10 0 -12 14 -9 10 3 16 10 12 16 -4 6 -1 7 7 2 10 -6 9
-11 -6 -23 -19 -14 -19 -15 0 -8 13 4 23 0 33 -14 8 -12 22 -20 31 -18 10 1
27 -4 39 -12 18 -11 20 -17 10 -29 -9 -11 -9 -13 0 -8 7 4 17 0 23 -10 9 -13
10 -14 7 -2 -3 9 1 16 8 16 7 0 11 -6 8 -14 -3 -7 1 -13 9 -13 7 0 19 -9 26
-20 7 -11 19 -20 27 -20 8 0 14 -5 12 -12 -1 -7 3 -12 8 -13 6 0 17 -4 25 -10
13 -8 13 -7 1 8 -7 9 -18 14 -24 10 -6 -3 -7 -1 -3 6 8 13 29 1 53 -29 6 -8
15 -12 19 -8 4 4 13 0 21 -10 14 -16 14 -16 9 1 -5 15 -2 16 14 7 11 -6 20
-13 20 -16 0 -3 -5 -2 -11 2 -8 4 -7 0 1 -15 9 -18 30 -21 30 -5 0 3 -5 2 -12
-2 -7 -4 -8 -3 -4 4 5 9 14 7 32 -4 29 -19 32 -29 4 -14 -16 9 -18 8 -14 -5 4
-8 15 -15 25 -15 10 0 19 -5 19 -11 0 -5 -4 -8 -8 -5 -5 3 -9 -1 -9 -8 0 -7 6
-13 13 -13 7 0 11 4 8 8 -2 4 0 10 6 14 5 3 10 -1 10 -9 0 -14 12 -20 33 -17
4 0 7 -3 7 -8 0 -5 7 -12 16 -15 8 -3 12 -2 9 3 -3 5 0 13 6 17 8 4 9 3 5 -4
-4 -7 -3 -12 3 -12 6 0 8 -6 5 -14 -4 -11 0 -13 15 -9 12 3 21 1 21 -6 0 -6 9
-11 20 -11 11 0 20 -4 20 -9 0 -5 7 -12 16 -15 14 -6 15 -4 4 9 -19 23 10 16
32 -8 10 -12 19 -14 23 -7 3 6 11 8 16 4 6 -4 6 -11 -1 -19 -9 -11 -7 -12 7
-9 20 5 61 -31 50 -43 -4 -3 -7 -1 -7 5 0 7 -5 12 -12 12 -6 0 -4 -8 6 -19 10
-11 24 -17 32 -14 8 3 14 0 14 -6 0 -8 5 -9 19 -1 13 6 22 7 26 0 3 -5 13 -6
22 -3 11 5 14 3 8 -6 -6 -10 -3 -11 15 -1 12 7 20 8 16 2 -7 -12 22 -24 37
-15 7 3 9 3 5 -2 -4 -4 0 -14 10 -22 9 -8 12 -12 6 -9 -6 3 -11 -1 -11 -9 0
-10 6 -10 26 3 14 10 22 12 18 6 -4 -7 1 -18 10 -25 13 -11 15 -11 9 -1 -6 10
-1 11 21 6 15 -4 34 -12 42 -18 11 -8 13 -8 7 2 -4 6 -2 12 3 12 6 0 11 -7 11
-15 0 -9 12 -18 30 -21 17 -4 30 -10 30 -14 0 -4 12 -12 27 -19 24 -11 25 -11
12 5 -13 16 -12 16 18 1 38 -20 47 -21 37 -4 -5 8 -2 8 9 -2 19 -15 23 -26 5
-15 -7 4 -8 3 -4 -4 4 -7 18 -12 32 -12 13 0 24 -4 24 -10 0 -5 7 -10 16 -10
8 0 13 -4 10 -8 -3 -5 1 -9 9 -9 8 0 12 3 10 7 -2 4 2 7 9 7 8 0 12 -5 10 -11
-3 -7 13 -12 38 -13 59 -2 81 -8 86 -21 2 -6 10 -8 19 -5 11 4 14 2 9 -5 -5
-8 -2 -10 8 -6 9 3 13 11 9 17 -3 6 -1 7 5 3 6 -4 8 -14 5 -22 -5 -13 -1 -15
15 -9 17 5 22 2 22 -12 0 -10 3 -14 8 -8 11 16 52 16 59 -1 3 -7 9 -11 14 -8
6 3 17 0 26 -8 10 -7 14 -8 10 -1 -5 7 -1 10 10 8 10 -2 22 -4 26 -4 5 -1 5
-6 1 -12 -4 -8 -9 -7 -16 2 -8 11 -9 11 -5 -1 2 -8 12 -14 22 -12 9 2 14 -1
11 -6 -3 -6 2 -8 13 -5 10 3 22 0 26 -7 5 -8 10 -8 21 1 8 7 14 7 14 1 0 -5
11 -9 24 -8 13 0 22 4 19 9 -8 14 8 7 28 -12 14 -12 33 -18 64 -17 25 1 45 -3
45 -9 0 -5 5 -3 10 5 8 13 10 12 10 -2 0 -10 5 -18 11 -18 5 0 7 6 3 13 -6 8
-3 8 9 -1 9 -8 21 -11 27 -7 5 3 10 2 10 -3 0 -6 14 -7 35 -2 20 4 38 4 41 -1
3 -5 11 -6 17 -2 7 4 5 -2 -3 -12 -9 -11 -10 -16 -3 -11 18 10 53 16 52 8 -3
-20 3 -23 18 -11 14 12 16 12 8 0 -6 -11 -3 -13 13 -9 12 4 22 2 22 -4 0 -5 5
-6 10 -3 6 3 10 1 10 -6 0 -9 3 -9 14 0 10 8 16 9 21 1 3 -5 11 -10 16 -10 6
0 8 3 6 8 -3 4 5 7 18 7 17 0 21 -3 14 -12 -11 -13 7 -13 28 0 9 6 11 3 6 -9
-5 -13 -2 -16 9 -12 9 4 21 1 28 -5 10 -9 11 -9 6 1 -9 15 -1 15 26 1 15 -8
19 -8 14 0 -8 12 78 6 97 -6 6 -3 7 -1 4 4 -5 7 14 10 56 7 34 -1 68 -3 75 -3
7 -1 10 -5 7 -11 -3 -5 -1 -10 4 -10 6 0 11 5 11 10 0 6 5 10 11 10 5 0 8 -4
5 -9 -8 -13 58 -20 66 -7 5 7 8 7 8 -3 0 -10 3 -11 14 -2 10 9 16 9 21 1 5 -8
10 -8 20 0 10 8 15 8 20 0 5 -8 10 -8 20 0 10 8 14 7 18 -2 4 -10 8 -10 16 2
7 10 11 11 11 3 0 -7 5 -13 11 -13 5 0 7 5 3 12 -5 7 -3 8 6 3 16 -10 243 -10
258 -1 6 3 13 0 15 -6 4 -10 8 -9 16 2 7 10 11 11 11 3 0 -7 5 -13 11 -13 5 0
7 5 3 12 -5 7 -3 8 6 3 18 -11 120 -13 113 -1 -4 5 -1 6 7 1 16 -10 110 -11
134 -2 8 3 18 2 22 -4 4 -6 11 -6 20 2 10 8 11 16 3 30 -5 10 -7 19 -5 19 3 0
1 12 -5 28 -11 28 -21 68 -22 90 0 6 -4 12 -8 12 -4 0 -6 9 -4 20 2 11 -1 20
-7 20 -6 0 -9 3 -5 6 3 4 0 21 -7 38 -7 17 -11 37 -9 44 3 6 0 12 -6 12 -6 0
-11 11 -11 24 0 14 -5 28 -10 31 -6 4 -8 10 -5 14 4 7 -11 52 -51 156 -4 11
-8 22 -8 25 -1 3 -5 11 -9 18 -5 7 -11 25 -13 40 -3 15 -9 31 -15 36 -5 6 -9
21 -9 34 0 13 -4 20 -10 17 -5 -3 -10 1 -10 9 0 28 -1 31 -18 50 -9 11 -11 16
-4 12 7 -4 1 13 -13 38 -14 25 -25 51 -25 60 0 8 -4 16 -9 18 -5 2 -11 12 -13
23 -1 11 -5 22 -8 25 -11 11 -55 105 -53 112 2 4 -2 8 -7 8 -6 0 -10 9 -10 20
0 11 -3 20 -8 20 -8 0 -38 61 -34 73 1 4 -2 7 -6 7 -5 0 -14 16 -22 35 -8 19
-17 35 -21 35 -4 0 -12 12 -18 28 -18 41 -43 85 -58 100 -7 7 -13 18 -13 23 0
5 -22 43 -50 84 -27 41 -46 75 -42 75 4 0 -1 5 -10 11 -10 5 -18 17 -18 24 0
8 -4 15 -9 15 -5 0 -12 8 -16 19 -3 10 -16 31 -29 46 -14 16 -30 40 -38 54 -7
14 -20 33 -28 41 -33 36 -60 71 -60 78 0 4 -15 24 -33 44 -17 21 -42 50 -54
65 -12 15 -30 38 -40 50 -10 12 -34 41 -53 64 -19 24 -50 58 -67 77 -18 18
-33 35 -33 37 0 2 -31 35 -70 75 -38 40 -70 76 -70 81 0 5 -4 9 -8 9 -5 0 -50
41 -101 90 -52 50 -98 90 -102 90 -5 0 -9 7 -9 17 0 9 -3 14 -6 11 -5 -5 -44
26 -106 85 -10 9 -18 15 -18 13 0 -3 -13 8 -29 22 -36 35 -82 72 -87 72 -2 0
-16 11 -31 25 -44 38 -122 95 -132 95 -5 0 -11 3 -13 8 -5 11 -75 62 -86 62
-6 0 -12 7 -16 15 -3 8 -12 15 -21 15 -8 0 -15 5 -15 10 0 6 -7 10 -15 10 -8
0 -15 5 -15 10 0 6 -7 10 -15 10 -8 0 -15 5 -15 10 0 6 -6 10 -13 10 -7 0 -23
9 -35 20 -12 12 -22 17 -22 13 0 -4 -7 0 -14 10 -8 10 -17 18 -21 17 -3 -1
-21 8 -41 19 -19 11 -37 20 -41 20 -3 0 -9 4 -12 9 -3 5 -25 19 -48 31 -24 12
-43 26 -43 31 0 5 -7 7 -15 4 -8 -4 -15 -1 -15 6 0 6 -4 9 -9 6 -5 -4 -11 -2
-13 3 -1 5 -10 11 -18 13 -8 2 -17 6 -20 9 -11 14 -228 117 -234 112 -3 -4 -6
-2 -6 4 0 6 -10 14 -22 18 -13 4 -25 8 -28 10 -62 27 -81 35 -90 35 -5 0 -10
4 -10 8 0 5 -6 9 -12 9 -7 0 -29 7 -48 15 -44 20 -75 30 -76 26 0 -2 -7 2 -15
9 -8 6 -33 16 -56 22 -24 7 -43 16 -43 21 0 5 -9 7 -20 5 -11 -2 -20 1 -20 6
0 6 -4 8 -9 4 -5 -3 -12 -1 -16 5 -4 6 -10 8 -15 5 -5 -3 -11 -1 -15 5 -3 5
-17 10 -31 10 -13 0 -24 4 -24 8 0 4 -8 8 -17 9 -19 1 -37 6 -65 16 -48 18
-90 29 -115 30 -7 0 -13 5 -13 10 0 5 -7 7 -15 4 -8 -4 -17 -2 -21 4 -3 6 -12
8 -19 5 -7 -2 -16 -2 -20 2 -4 4 -11 8 -16 8 -5 1 -11 3 -14 4 -3 1 -13 3 -22
4 -10 1 -23 4 -29 8 -6 4 -27 8 -47 10 -21 1 -37 6 -37 11 0 5 -9 7 -20 4 -11
-3 -20 0 -20 6 0 7 -5 5 -10 -3 -5 -8 -10 -10 -10 -4 0 6 -6 11 -12 12 -7 1
-26 4 -43 7 -16 3 -39 7 -50 9 -11 2 -20 5 -20 6 0 1 -11 3 -25 4 -14 0 -29 4
-35 7 -5 3 -25 5 -42 4 -18 -1 -33 2 -33 5 0 6 -34 10 -107 13 -18 1 -33 4
-33 7 0 3 -20 7 -44 8 -47 2 -105 10 -116 17 -3 2 -12 0 -20 -5 -10 -6 -21 -3
-34 8 -11 9 -16 12 -12 5 6 -11 -24 -11 -86 2 -9 1 -19 -2 -22 -9 -3 -8 -5 -7
-5 1 -1 10 -67 12 -281 12 -204 0 -279 -3 -274 -11 5 -7 2 -8 -7 -2 -15 9 -79
12 -79 4 0 -3 -13 -5 -30 -6 -16 -1 -27 3 -24 7 3 5 3 9 0 9 -3 0 -10 -8 -15
-17z m-331 -603 c0 -5 -5 -10 -11 -10 -5 0 -7 5 -4 10 3 6 8 10 11 10 2 0 4
-4 4 -10z m275 -498 c-3 -3 -11 0 -18 7 -9 10 -8 11 6 5 10 -3 15 -9 12 -12z
m200 -300 c-3 -3 -11 0 -18 7 -9 10 -8 11 6 5 10 -3 15 -9 12 -12z m520 -630
c-3 -3 -11 0 -18 7 -9 10 -8 11 6 5 10 -3 15 -9 12 -12z m39 -51 c-3 -3 -15 6
-27 18 l-22 24 27 -19 c14 -10 24 -21 22 -23z m81 -71 c-3 -6 1 -13 9 -16 9
-3 16 -11 16 -17 0 -5 -9 -2 -20 8 -17 15 -19 35 -4 35 3 0 2 -5 -1 -10z m885
-692 c0 -4 -4 -8 -9 -8 -6 0 -12 4 -15 8 -3 5 1 9 9 9 8 0 15 -4 15 -9z m1894
-826 c3 -5 -1 -9 -9 -9 -8 0 -12 4 -9 9 3 4 7 8 9 8 2 0 6 -4 9 -8z"/>
<path d="M8490 14461 c0 -5 -19 -11 -42 -15 -23 -4 -46 -12 -50 -19 -6 -9 -8
-8 -8 2 0 10 -5 10 -25 -3 -14 -9 -30 -14 -36 -11 -5 4 -16 1 -24 -5 -8 -7
-15 -9 -15 -5 0 4 -6 3 -12 -2 -7 -6 -23 -9 -35 -8 -13 1 -23 -2 -23 -6 0 -4
-17 -10 -37 -14 -21 -4 -44 -12 -51 -17 -7 -6 -15 -8 -19 -5 -3 4 -12 2 -20
-4 -7 -6 -13 -8 -13 -4 0 4 -7 2 -15 -5 -8 -6 -19 -9 -25 -5 -5 3 -10 2 -10
-3 0 -5 -15 -13 -32 -17 -36 -8 -35 -8 -60 -19 -9 -4 -24 -9 -33 -10 -9 -1
-21 -9 -26 -17 -7 -12 -9 -12 -9 1 0 12 -2 12 -9 2 -4 -7 -18 -14 -29 -15 -12
-1 -22 -5 -22 -10 0 -4 -4 -5 -10 -2 -5 3 -10 2 -10 -3 0 -5 -6 -9 -14 -9 -7
0 -35 -10 -60 -22 -26 -12 -52 -18 -58 -15 -7 4 -8 3 -4 -4 5 -8 0 -12 -13
-12 -12 0 -21 -4 -21 -8 0 -5 -6 -9 -12 -9 -7 0 -51 -19 -97 -41 -47 -23 -88
-39 -93 -36 -4 3 -8 1 -8 -4 0 -9 -70 -47 -82 -44 -5 1 -8 -3 -8 -10 0 -6 -3
-9 -6 -5 -4 3 -23 -5 -43 -18 -19 -14 -41 -25 -48 -25 -7 0 -13 -4 -13 -8 0
-5 -19 -16 -42 -27 -40 -17 -99 -53 -125 -75 -7 -6 -13 -8 -13 -5 0 4 -12 -3
-26 -14 -15 -12 -33 -21 -40 -21 -8 0 -14 -4 -14 -8 0 -5 -12 -15 -27 -23 -16
-8 -30 -17 -33 -20 -8 -10 -95 -63 -96 -58 0 2 -12 -9 -27 -25 -15 -16 -27
-25 -27 -21 0 4 -20 -9 -45 -29 -25 -21 -45 -35 -45 -33 0 3 -15 -8 -32 -23
-18 -16 -35 -28 -38 -27 -3 1 -20 -12 -37 -30 -17 -17 -34 -29 -37 -26 -3 4
-6 1 -6 -5 0 -7 -7 -12 -16 -12 -8 0 -12 -4 -9 -10 3 -5 0 -10 -8 -10 -8 0
-17 -7 -21 -15 -3 -8 -13 -15 -21 -15 -9 0 -13 -4 -10 -10 3 -5 2 -10 -3 -10
-5 0 -20 -9 -33 -20 -46 -39 -152 -135 -195 -177 -23 -23 -45 -39 -48 -35 -3
3 -6 1 -6 -4 0 -14 -107 -123 -114 -116 -3 3 -6 -2 -6 -11 0 -9 -7 -17 -16
-17 -8 0 -13 -4 -9 -9 3 -6 -4 -15 -15 -21 -11 -6 -18 -15 -15 -21 4 -5 -1 -9
-9 -9 -9 0 -16 -3 -16 -7 0 -5 -23 -33 -51 -63 -27 -30 -60 -68 -72 -84 -12
-15 -32 -38 -44 -49 -13 -11 -23 -24 -23 -29 0 -5 -14 -22 -30 -38 -17 -17
-28 -30 -25 -30 4 0 0 -6 -7 -14 -23 -24 -48 -56 -48 -61 0 -3 -8 -14 -17 -24
-23 -25 -33 -38 -63 -81 -13 -19 -30 -41 -37 -48 -6 -6 -15 -21 -18 -32 -3
-11 -11 -20 -16 -20 -5 0 -9 -7 -9 -15 0 -7 -8 -18 -17 -24 -10 -5 -17 -12
-16 -15 4 -9 -31 -66 -40 -66 -5 0 -5 -4 -2 -10 3 -5 1 -10 -4 -10 -6 0 -11
-7 -11 -15 0 -8 -4 -15 -10 -15 -5 0 -12 -11 -16 -25 -3 -14 -10 -25 -15 -25
-5 0 -9 -7 -9 -15 0 -8 -4 -15 -10 -15 -5 0 -10 -9 -10 -20 0 -11 -4 -20 -8
-20 -4 0 -23 -29 -41 -65 -19 -36 -38 -65 -42 -65 -5 0 -8 -3 -7 -7 3 -13 -36
-93 -45 -93 -4 0 -5 -4 -2 -10 3 -5 1 -10 -4 -10 -6 0 -11 -3 -10 -7 2 -16
-14 -53 -23 -53 -5 0 -7 -4 -3 -9 3 -5 -1 -15 -8 -23 -8 -7 -17 -26 -21 -41
-3 -15 -11 -25 -15 -22 -5 3 -7 -4 -4 -15 3 -11 1 -20 -5 -20 -8 0 -12 -9 -23
-50 0 -3 -6 -14 -12 -25 -6 -11 -12 -22 -12 -25 -1 -3 -8 -18 -15 -35 -7 -16
-14 -32 -15 -35 -4 -13 -26 -67 -37 -90 -24 -56 -28 -66 -31 -85 -2 -11 -8
-29 -14 -40 -6 -11 -11 -22 -11 -25 0 -3 -6 -18 -12 -35 -7 -16 -13 -38 -16
-49 -2 -10 -9 -25 -16 -34 -11 -13 -11 -14 2 -7 12 7 13 6 4 -6 -6 -8 -15 -27
-19 -44 -11 -41 -11 -42 -34 -112 -10 -35 -16 -63 -13 -63 4 0 0 -5 -8 -10
-11 -7 -12 -10 -2 -10 10 0 9 -4 -3 -16 -12 -13 -13 -19 -5 -24 9 -5 9 -9 1
-11 -6 -2 -12 -16 -13 -31 -1 -16 -5 -28 -8 -28 -3 0 -6 -10 -7 -23 -3 -34 -8
-51 -17 -65 -4 -7 -6 -16 -3 -18 3 -3 1 -20 -4 -37 -10 -33 -19 -82 -24 -127
-1 -14 -3 -25 -4 -25 -5 0 -21 -94 -27 -160 -2 -27 -7 -57 -11 -65 -3 -8 -6
-31 -7 -50 -1 -19 -3 -39 -6 -45 -3 -5 -5 -31 -5 -57 0 -27 -4 -48 -10 -48 -5
0 -3 -5 5 -10 9 -6 10 -10 3 -10 -7 0 -10 -10 -7 -26 3 -14 1 -23 -3 -21 -10
6 -8 -97 2 -114 5 -8 4 -10 -3 -5 -9 5 -11 -76 -10 -318 1 -179 5 -323 9 -321
4 3 5 -10 4 -28 -1 -17 3 -35 9 -39 7 -5 7 -8 -3 -8 -11 0 -11 -3 -1 -15 10
-12 10 -15 -1 -15 -9 0 -10 -3 -4 -8 6 -4 11 -18 12 -32 1 -14 4 -50 6 -80 3
-30 7 -62 10 -70 3 -8 5 -26 3 -40 -1 -14 0 -29 3 -35 7 -13 10 -30 17 -80 6
-45 12 -80 14 -80 2 0 12 -59 13 -82 0 -13 4 -23 7 -23 4 0 7 -6 7 -12 1 -31
15 -84 24 -92 6 -6 9 -5 9 2 0 10 5 10 21 1 12 -6 19 -7 16 -2 -3 4 2 15 11
23 14 13 15 13 10 -1 -4 -10 1 -15 13 -16 17 -2 36 30 31 50 -1 4 6 3 17 -2
22 -12 48 10 35 31 -6 9 -3 9 10 -1 12 -10 20 -11 28 -3 8 8 17 8 32 0 12 -6
18 -7 14 -3 -11 12 11 35 26 29 8 -3 16 2 19 10 4 9 12 16 18 16 9 0 9 -4 0
-14 -8 -10 -9 -16 -1 -21 6 -4 10 -3 9 2 -1 4 2 19 6 31 6 17 10 20 16 11 6
-11 9 -10 15 4 3 9 10 17 16 17 5 0 6 -6 2 -12 -6 -10 -5 -10 8 -1 8 7 19 9
23 5 5 -4 4 -1 0 7 -6 11 -4 13 8 8 15 -6 22 3 18 25 0 4 8 5 18 3 28 -5 111
26 111 41 0 8 5 14 11 14 5 0 8 -4 5 -8 -3 -5 2 -9 10 -9 9 0 13 6 9 15 -4 10
0 12 11 8 15 -6 15 -4 3 11 -12 15 -12 16 5 10 12 -5 23 -1 33 10 8 10 12 12
8 6 -3 -7 -1 -13 4 -13 6 0 11 7 11 16 0 12 6 15 21 11 12 -3 22 0 26 9 3 8
10 14 17 13 6 -1 20 -1 31 0 17 1 18 3 5 11 -13 8 -12 10 3 10 12 0 16 4 11
13 -6 9 -3 8 8 -1 14 -11 19 -10 34 13 17 26 19 26 31 9 12 -17 13 -16 13 5 0
18 4 22 19 18 14 -3 18 -1 14 9 -3 9 1 14 12 14 10 0 14 -5 10 -12 -4 -7 9 5
28 27 19 22 33 43 30 47 -2 4 3 5 11 2 9 -3 13 -11 9 -17 -3 -6 -1 -7 6 -3 6
4 9 11 6 15 -2 5 3 17 11 27 14 17 15 17 10 1 -5 -15 -2 -16 14 -7 11 6 20 13
20 16 0 3 -5 2 -12 -2 -7 -5 -8 -3 -4 5 5 7 15 10 23 6 14 -5 14 -3 2 12 -7
10 -9 15 -4 10 4 -4 17 1 28 10 11 10 17 12 13 6 -4 -7 -2 -13 3 -13 6 0 11 5
11 11 0 5 4 8 9 4 5 -3 13 0 16 6 4 5 13 8 21 5 7 -3 22 7 33 23 15 21 27 28
46 25 19 -2 25 1 21 11 -7 20 19 34 66 38 13 1 14 5 6 14 -13 16 4 17 19 2 9
-9 11 -5 9 15 -3 21 -1 24 10 15 11 -9 14 -7 14 7 0 16 2 17 11 4 9 -12 10
-10 6 8 -5 20 -3 22 11 10 9 -7 13 -8 9 -2 -4 7 1 15 10 18 15 6 15 8 3 17
-11 8 -9 9 9 4 18 -6 22 -4 15 6 -6 10 -3 10 11 -1 11 -9 16 -10 11 -2 -4 7
-1 12 9 12 9 0 13 4 10 10 -4 6 1 7 11 3 13 -5 16 -3 11 9 -4 13 -1 16 19 12
24 -4 30 13 9 28 -6 5 -6 8 2 8 7 0 16 -7 21 -16 8 -15 10 -15 15 0 4 10 3 15
-3 11 -6 -3 -10 -1 -10 4 0 6 7 11 16 11 9 0 12 5 8 11 -4 7 -1 10 7 7 8 -3
19 6 27 21 7 14 10 18 7 9 -2 -10 0 -18 5 -18 6 0 10 5 10 11 0 5 5 7 12 3 7
-5 9 -2 5 9 -4 11 3 18 24 26 31 11 36 20 18 38 -8 8 -6 11 7 10 11 -1 18 4
16 11 -1 8 2 11 7 8 5 -4 13 -1 16 5 4 5 13 8 21 5 15 -6 37 27 26 39 -4 4 2
3 14 -3 12 -7 26 -7 35 -1 10 6 10 9 2 9 -7 0 -13 5 -13 11 0 5 5 7 12 3 7 -5
9 -1 6 13 -3 12 0 20 7 20 7 0 11 -7 8 -16 -2 -9 5 0 16 19 11 19 20 31 21 25
0 -5 5 -2 11 8 6 9 14 15 20 12 5 -4 6 2 2 11 -5 13 -3 15 7 9 10 -6 12 -4 7
8 -4 12 -2 14 10 10 12 -5 15 -2 10 10 -3 8 1 21 9 27 10 9 14 9 14 1 0 -6 -5
-11 -11 -11 -5 0 -7 -5 -3 -11 4 -8 11 -3 20 12 7 13 10 27 8 31 -2 3 0 9 5
13 6 3 8 -4 6 -15 -2 -11 0 -18 6 -15 5 4 9 14 9 24 0 9 7 26 16 37 15 18 15
18 5 -3 -8 -15 -8 -24 -1 -28 6 -4 9 -1 8 7 -2 7 2 12 8 11 7 -1 10 6 7 16 -3
10 0 22 6 25 7 5 9 0 5 -11 -4 -11 -3 -14 3 -7 4 6 17 16 28 23 11 7 13 10 4
8 -27 -9 -40 7 -18 22 12 7 18 8 14 2 -3 -6 -1 -11 4 -11 10 0 15 15 9 23 -6
9 25 36 34 31 16 -10 49 33 41 53 -7 17 -6 17 11 1 9 -10 23 -18 29 -17 8 0 8
2 -1 6 -6 2 -9 10 -6 15 5 7 2 8 -6 3 -9 -6 -11 -4 -6 4 5 7 13 10 20 8 6 -3
21 2 31 10 15 12 16 14 3 10 -17 -6 -20 16 -3 30 4 4 5 2 1 -4 -4 -7 -2 -13 3
-13 6 0 12 5 12 10 1 6 2 14 3 19 2 15 16 26 34 26 9 0 16 6 14 14 -2 11 0 12
10 3 11 -9 14 -7 15 9 1 11 -2 17 -7 14 -6 -3 -7 1 -3 10 4 12 8 13 13 5 10
-17 15 -17 34 -1 13 11 14 16 4 29 -11 13 -10 14 10 3 23 -12 23 -12 11 11
-12 22 -11 22 6 8 17 -14 18 -14 5 10 -10 21 -10 23 1 13 19 -19 34 -16 18 4
-8 9 -9 14 -4 11 6 -3 19 4 30 16 11 11 16 18 11 14 -19 -15 -24 -8 -13 17 9
18 17 23 32 19 16 -4 17 -3 5 5 -13 9 -13 11 -1 11 11 0 9 4 -5 15 -18 15 -18
15 0 8 15 -5 17 -3 11 8 -7 12 -6 12 7 1 14 -11 16 -10 11 9 -4 15 -3 20 5 15
7 -4 12 -2 12 4 0 6 6 8 13 4 6 -4 9 -4 5 1 -4 4 -2 15 4 24 8 10 4 9 -10 -3
-12 -11 -22 -14 -22 -9 0 6 7 14 16 17 8 3 13 10 10 15 -3 5 2 7 13 4 10 -3
22 1 26 8 5 8 4 10 -3 5 -7 -4 -12 -2 -12 5 0 6 8 9 20 6 11 -3 23 -1 26 4 3
5 2 9 -3 8 -21 -4 -25 2 -9 14 9 7 19 21 20 32 2 13 10 19 22 17 15 -3 16 -1
5 11 -9 12 -9 17 0 23 8 4 9 3 5 -4 -4 -7 -1 -12 9 -12 11 0 14 7 11 26 -4 23
-3 24 11 12 12 -9 15 -9 9 0 -4 6 -2 12 4 12 7 0 8 6 1 19 -9 16 -8 18 9 14
12 -3 20 0 20 6 0 7 5 9 12 5 7 -4 8 -3 4 5 -6 9 -12 9 -24 -1 -16 -12 -16
-11 -1 7 9 11 20 30 24 43 3 12 11 20 16 17 5 -3 6 1 3 9 -3 9 -11 13 -17 9
-6 -3 -7 -1 -3 6 6 9 11 9 21 1 11 -9 13 -6 11 14 -3 20 1 26 16 26 15 0 17 4
9 18 -8 15 -6 18 12 18 13 -1 21 4 20 12 -2 6 2 12 7 12 5 0 9 3 9 8 -3 20 2
32 15 32 7 0 19 7 26 15 9 10 9 15 1 15 -6 0 -11 -5 -11 -12 0 -6 -2 -9 -5 -6
-9 8 6 38 16 32 5 -3 9 0 9 6 0 6 5 8 13 4 8 -5 8 -2 -2 9 -9 12 -10 17 -2 17
7 0 9 5 5 12 -4 7 -3 8 5 4 6 -4 9 -12 6 -17 -4 -5 -1 -9 5 -9 7 0 9 8 5 20
-5 15 -2 18 14 15 14 -2 18 1 14 11 -3 7 -10 11 -17 8 -6 -3 -2 1 8 10 10 8
22 13 27 11 9 -6 6 15 -4 31 -4 7 0 17 8 24 8 7 15 23 15 37 0 15 8 27 23 33
12 5 16 9 9 9 -7 1 -11 5 -7 11 3 5 13 6 22 3 10 -4 14 -2 9 5 -3 6 -1 14 5
17 5 4 8 14 4 22 -4 13 -3 13 9 4 11 -9 14 -8 12 6 0 10 5 18 13 18 18 0 26
21 12 30 -7 4 -9 -1 -5 -12 5 -15 4 -15 -4 -3 -12 16 -6 33 9 25 5 -4 9 -1 9
5 0 6 5 8 10 5 6 -3 10 -1 10 4 0 6 -6 11 -12 11 -9 1 -8 5 2 13 9 7 14 20 12
31 -2 10 2 22 10 27 11 7 11 9 -1 9 -10 0 -11 3 -2 13 8 10 7 17 -2 26 -10 11
-8 11 9 3 14 -7 25 -7 35 0 11 8 11 9 -3 4 -10 -3 -20 -1 -23 4 -6 9 11 14 43
13 10 -1 10 2 1 13 -6 8 -16 11 -22 7 -6 -3 -7 -1 -3 6 4 6 12 9 17 6 5 -4 9
-1 9 5 0 6 4 8 10 5 6 -4 7 1 3 11 -5 13 -3 15 8 9 12 -7 12 -6 1 7 -11 14
-11 18 1 25 20 11 34 58 16 49 -8 -4 -6 -1 3 7 14 11 15 16 5 26 -9 10 -8 11
8 5 18 -7 18 -6 6 9 -12 15 -10 18 10 26 21 9 22 10 4 11 -16 0 -17 2 -5 9 8
6 17 8 21 5 4 -2 11 1 15 7 4 7 3 9 -3 6 -6 -4 -13 2 -16 13 -3 11 -2 19 2 18
3 0 15 0 26 1 17 1 18 3 5 11 -10 7 -11 10 -2 10 8 0 13 13 12 33 0 57 4 77
16 77 6 0 18 8 25 18 13 15 12 16 -3 4 -12 -10 -18 -10 -24 -1 -4 8 -3 9 4 5
7 -4 12 -2 12 3 0 6 7 11 16 11 14 0 14 3 4 15 -10 12 -10 15 0 15 9 0 9 4 -1
17 -12 14 -12 16 2 11 16 -6 17 -3 20 47 1 13 5 22 10 19 5 -3 6 3 2 12 -4 10
-2 15 4 11 5 -3 10 0 10 8 0 8 -4 12 -9 9 -15 -10 -8 14 9 27 10 8 14 9 10 2
-4 -6 -2 -15 5 -19 7 -4 10 -4 6 1 -4 4 -2 15 5 23 8 10 8 13 1 9 -7 -4 -14 0
-18 8 -3 8 -2 14 2 12 4 -1 8 2 9 7 1 5 7 13 15 17 10 7 10 9 1 9 -7 0 -13 4
-13 9 0 5 6 16 13 23 6 7 12 20 12 28 0 8 6 14 13 12 10 -2 10 2 3 17 -8 14
-7 22 4 31 10 8 14 25 11 47 -2 23 0 33 8 30 15 -6 16 35 2 45 -7 5 -4 8 7 8
15 0 16 4 7 20 -9 16 -8 18 5 14 11 -5 14 -2 8 12 -4 12 -3 15 5 10 7 -4 12
-1 12 9 0 10 -5 13 -12 9 -10 -6 -10 -4 0 8 7 8 9 24 5 33 -5 14 -3 16 8 10
12 -8 12 -6 0 8 -13 16 -8 22 13 18 5 -1 5 4 0 11 -13 16 -12 27 5 57 11 19
11 22 -1 16 -10 -6 -11 -5 0 6 6 7 12 17 12 22 0 4 -6 5 -12 1 -7 -4 -2 3 10
16 19 18 21 24 10 32 -10 7 -10 11 0 15 6 2 12 11 12 19 0 10 5 12 13 8 9 -6
8 -3 -1 8 -11 14 -11 21 0 40 15 25 17 56 5 75 -5 8 -1 11 12 8 14 -2 18 1 14
11 -3 7 -10 11 -17 8 -6 -3 -3 1 6 9 10 8 15 17 11 21 -4 4 -1 11 7 16 9 6 10
10 3 10 -14 0 -13 40 2 40 5 0 3 5 -5 10 -10 6 -11 10 -2 10 6 0 12 12 12 26
0 14 5 34 10 45 8 14 7 19 -2 19 -9 0 -9 3 2 10 12 8 12 10 1 10 -11 0 -11 3
0 16 8 10 9 18 2 22 -12 8 -2 44 12 42 5 0 10 6 11 15 1 8 -2 13 -7 9 -5 -3
-6 -10 -3 -16 4 -7 2 -8 -4 -4 -12 7 -5 36 9 36 5 0 9 9 9 21 0 13 -4 18 -12
13 -9 -6 -9 -3 0 9 8 9 11 21 7 27 -3 5 -1 10 5 10 7 0 8 5 3 13 -13 20 -9 71
7 85 8 8 9 11 3 7 -16 -8 -16 -9 1 40 11 31 11 43 3 54 -10 12 -9 14 5 9 14
-6 15 -4 3 19 -12 23 -12 28 3 41 9 7 11 10 4 7 -9 -5 -13 -1 -11 11 2 11 0
25 -4 32 -5 7 -3 12 5 12 9 0 9 3 -2 10 -13 9 -13 10 0 10 13 0 13 1 0 10 -8
5 -10 10 -5 10 11 0 12 186 1 197 -3 3 2 12 12 20 9 8 11 11 4 8 -9 -5 -13 -1
-11 11 2 11 0 25 -4 32 -5 7 -3 12 5 12 9 0 9 3 -2 10 -13 9 -13 10 0 10 13 0
13 1 0 10 -8 5 -10 10 -5 10 11 0 12 186 1 197 -3 3 2 12 12 20 9 8 11 11 4 8
-9 -5 -13 -1 -11 11 2 11 0 25 -4 32 -5 7 -3 12 5 12 9 0 9 3 -2 10 -13 9 -13
10 0 10 13 0 13 1 0 10 -8 5 -10 10 -5 10 6 0 10 16 10 35 0 19 -4 35 -8 35
-4 0 -3 10 4 21 9 17 8 20 -3 13 -19 -12 -38 -14 -38 -3 0 5 -4 9 -10 9 -5 0
-10 -4 -10 -9z m-1300 -4295 c0 -3 -4 -8 -10 -11 -5 -3 -10 -1 -10 4 0 6 5 11
10 11 6 0 10 -2 10 -4z m-1491 -1213 c-7 -10 -14 -19 -15 -21 -1 -2 -4 4 -8
13 -3 9 -2 13 3 10 5 -3 12 -1 16 5 3 5 9 10 12 10 3 0 -1 -8 -8 -17z"/>
<path d="M8700 14199 c0 -5 5 -7 10 -4 6 3 10 8 10 11 0 2 -4 4 -10 4 -5 0
-10 -5 -10 -11z"/>
<path d="M8983 13673 c4 -3 1 -13 -6 -22 -11 -14 -10 -14 5 -2 16 12 16 31 1
31 -4 0 -3 -3 0 -7z"/>
<path d="M9345 13090 c-3 -6 1 -7 9 -4 18 7 21 14 7 14 -6 0 -13 -4 -16 -10z"/>
<path d="M9513 12891 c0 -11 5 -18 9 -15 4 3 5 11 1 19 -7 21 -12 19 -10 -4z"/>
<path d="M8393 12605 c0 -8 4 -12 9 -9 5 3 6 10 3 15 -9 13 -12 11 -12 -6z"/>
<path d="M10009 12337 c6 -8 7 -18 3 -22 -4 -5 -1 -5 6 -1 10 6 10 11 1 22 -6
8 -14 14 -16 14 -3 0 0 -6 6 -13z"/>
<path d="M10034 12308 c-4 -6 -3 -8 4 -4 6 3 13 -3 17 -14 3 -11 11 -20 16
-20 5 0 2 11 -7 25 -19 29 -20 29 -30 13z"/>
<path d="M10590 11839 c0 -5 5 -7 10 -4 6 3 10 8 10 11 0 2 -4 4 -10 4 -5 0
-10 -5 -10 -11z"/>
<path d="M10863 11685 c0 -8 4 -12 9 -9 5 3 6 10 3 15 -9 13 -12 11 -12 -6z"/>
<path d="M12435 10950 c3 -5 8 -10 11 -10 2 0 4 5 4 10 0 6 -5 10 -11 10 -5 0
-7 -4 -4 -10z"/>
<path d="M14469 10603 c-1 -4 -1 -11 0 -15 0 -5 -3 -8 -9 -8 -5 0 -10 6 -10
13 0 9 -2 9 -9 -1 -4 -8 -11 -13 -15 -13 -20 3 -26 0 -20 -11 5 -9 2 -9 -9 1
-14 11 -17 11 -17 0 0 -11 -2 -11 -10 1 -9 13 -10 13 -11 0 -1 -8 -1 -17 -1
-21 0 -3 -13 -4 -29 -3 -16 1 -33 -4 -37 -12 -4 -7 -19 -15 -32 -17 -15 -3
-24 -11 -24 -20 1 -8 -5 -14 -15 -12 -9 1 -15 8 -13 15 1 6 -2 9 -8 5 -6 -3
-8 -11 -5 -16 4 -5 0 -18 -8 -29 -13 -19 -15 -20 -21 -3 -6 14 -9 15 -15 4 -6
-9 -20 -12 -40 -9 -26 4 -29 2 -18 -11 9 -11 9 -13 0 -8 -6 4 -15 3 -18 -3 -5
-8 -11 -8 -20 0 -16 13 -30 -4 -19 -22 6 -10 5 -10 -7 -1 -13 11 -18 9 -29
-12 -7 -13 -17 -22 -23 -18 -5 3 -4 8 3 13 8 5 7 9 -5 13 -9 4 -13 3 -10 -2 3
-5 -3 -12 -13 -15 -10 -4 -23 -18 -30 -34 -10 -25 -11 -25 -6 -2 4 17 2 21 -4
12 -5 -8 -13 -13 -18 -11 -5 1 -15 -9 -21 -22 -8 -14 -13 -18 -13 -9 -1 10 -7
7 -22 -10 -21 -25 -21 -25 -13 -2 7 23 6 23 -14 5 -24 -20 -27 -27 -8 -18 6 4
3 0 -7 -9 -10 -8 -24 -12 -30 -9 -6 4 -4 -2 4 -12 14 -17 14 -18 -7 -6 -20 10
-22 9 -16 -5 5 -13 3 -15 -7 -9 -10 6 -12 4 -7 -9 4 -9 3 -15 -2 -11 -5 3 -11
2 -14 -2 -2 -5 -2 -3 -1 4 2 7 -2 15 -8 19 -7 4 -8 3 -4 -4 4 -7 2 -12 -4 -12
-6 0 -8 -4 -5 -10 3 -5 -3 -10 -14 -10 -12 0 -21 -6 -21 -14 0 -8 -9 -12 -25
-11 -13 2 -24 0 -24 -3 4 -23 -3 -33 -17 -28 -8 3 -12 2 -9 -4 3 -6 1 -10 -5
-10 -6 0 -9 -4 -5 -9 3 -6 -6 -6 -24 -1 -24 7 -29 5 -24 -6 4 -10 0 -12 -13
-7 -12 5 -15 3 -9 -6 6 -10 2 -11 -15 -6 -20 6 -22 4 -18 -19 3 -14 2 -23 -2
-21 -4 3 -13 -2 -20 -10 -15 -18 -34 -20 -24 -3 4 7 3 8 -4 4 -6 -4 -9 -13 -6
-20 3 -8 0 -17 -5 -21 -6 -3 -8 -11 -5 -17 4 -7 2 -8 -5 -4 -6 4 -9 12 -6 17
4 5 -1 9 -10 9 -9 0 -13 -4 -10 -10 3 -5 1 -10 -5 -10 -6 0 -9 -4 -6 -9 7 -11
-13 -9 -33 3 -10 6 -12 5 -7 -2 4 -7 2 -20 -3 -29 -6 -10 -11 -12 -11 -5 0 6
-5 12 -11 12 -6 0 -8 -7 -5 -16 4 -11 0 -14 -17 -12 -17 2 -21 -1 -19 -16 3
-14 -1 -17 -13 -12 -13 4 -16 2 -11 -9 4 -10 -1 -15 -14 -15 -11 0 -24 -9 -30
-20 -6 -11 -20 -20 -32 -20 -18 0 -19 -2 -7 -17 8 -9 9 -14 2 -10 -13 8 -45
-2 -38 -12 2 -4 -2 -8 -10 -8 -8 0 -12 4 -9 8 2 4 -1 11 -8 15 -7 4 -10 4 -6
-1 4 -4 3 -14 -3 -22 -9 -9 -8 -13 0 -13 6 0 3 -8 -6 -18 -16 -16 -19 -16 -31
-2 -8 8 -11 9 -7 2 7 -13 -39 -37 -65 -33 -13 2 -13 1 0 -8 9 -6 18 -6 26 0 8
7 15 6 20 -2 4 -7 3 -9 -4 -5 -6 3 -13 2 -17 -4 -3 -5 -15 -10 -25 -10 -10 0
-22 -5 -26 -12 -4 -6 -3 -8 4 -4 6 3 13 2 16 -3 11 -17 -12 -22 -27 -6 -13 13
-16 13 -21 -1 -3 -8 -2 -12 4 -9 15 9 12 -21 -3 -34 -10 -7 -17 -7 -24 0 -8 8
-13 7 -18 -2 -5 -7 -4 -10 2 -6 6 4 13 1 16 -7 4 -10 -1 -13 -19 -11 -26 2
-36 -8 -41 -40 -4 -24 -42 -65 -60 -65 -8 0 -11 5 -8 10 4 6 10 8 15 5 5 -3
11 -1 14 4 7 11 -20 9 -31 -2 -12 -13 -14 -49 -1 -41 7 4 8 3 4 -4 -4 -8 -15
-8 -31 -2 -16 6 -27 6 -31 -2 -4 -7 -3 -8 4 -4 7 4 12 2 12 -4 0 -6 5 -8 12
-4 7 4 8 3 4 -5 -4 -6 -11 -9 -16 -6 -4 3 -11 -2 -14 -11 -4 -9 -13 -14 -21
-10 -20 7 -19 1 3 -20 16 -17 16 -18 0 -11 -50 20 -54 20 -33 4 20 -16 20 -16
-1 -17 -12 0 -32 -9 -45 -21 -13 -11 -18 -18 -11 -14 16 8 16 -20 -1 -34 -10
-7 -17 -7 -24 0 -8 8 -13 7 -18 -2 -5 -7 -4 -10 2 -6 6 4 13 1 16 -7 4 -9 -2
-12 -19 -10 -13 1 -26 -2 -29 -6 -3 -5 4 -7 15 -5 11 2 18 0 15 -6 -4 -5 -14
-9 -23 -9 -9 0 -24 -5 -32 -11 -13 -8 -13 -9 2 -7 9 2 17 -1 17 -7 0 -5 -8 -9
-18 -7 -10 1 -24 -5 -32 -14 -13 -16 -12 -16 11 -5 22 11 23 10 8 -2 -10 -8
-15 -17 -11 -20 3 -4 4 -7 0 -7 -3 0 -12 7 -20 15 -13 13 -16 13 -21 -1 -3 -8
-2 -12 4 -9 15 9 12 -21 -3 -34 -10 -7 -17 -7 -24 0 -8 8 -13 7 -18 -2 -5 -7
-4 -10 2 -6 6 4 13 1 16 -7 4 -9 -2 -12 -18 -10 -21 2 -55 -22 -47 -33 11 -15
-1 -30 -20 -26 -17 3 -19 2 -9 -5 10 -8 11 -14 1 -28 -10 -16 -11 -16 -6 -1 3
9 1 17 -4 17 -6 0 -10 -5 -10 -10 0 -6 -5 -9 -11 -8 -6 2 -13 -8 -15 -21 -2
-13 -9 -31 -15 -40 -10 -15 -10 -15 -5 1 2 9 -1 19 -9 22 -10 3 -12 0 -8 -11
4 -10 2 -14 -4 -10 -7 5 -9 -1 -6 -15 3 -16 2 -19 -5 -10 -7 10 -11 10 -22 -2
-7 -9 -16 -14 -20 -11 -5 3 -7 -6 -5 -21 1 -17 -2 -24 -10 -20 -9 3 -12 -3
-10 -19 1 -14 -1 -22 -5 -20 -11 7 -20 -20 -15 -44 3 -15 0 -18 -12 -14 -11 4
-14 2 -9 -5 4 -7 1 -12 -9 -12 -9 0 -13 -5 -10 -10 4 -6 10 -8 15 -5 5 3 12 0
16 -6 4 -8 3 -9 -4 -5 -6 4 -17 -2 -23 -13 -10 -15 -18 -17 -35 -10 -14 5 -26
4 -29 -2 -4 -5 -3 -9 2 -8 27 5 33 -1 21 -20 -7 -11 -16 -17 -21 -14 -5 3 -3
10 4 15 11 8 11 9 -1 5 -8 -2 -14 -11 -12 -20 2 -11 -2 -15 -11 -11 -8 3 -21
-6 -31 -23 l-17 -28 20 24 c12 13 21 19 21 14 0 -14 -39 -53 -52 -53 -9 0 -9
-3 -1 -11 9 -9 6 -19 -10 -40 -11 -16 -26 -29 -31 -29 -13 -1 -46 -69 -46 -93
0 -9 -3 -17 -8 -17 -4 0 -13 -10 -21 -22 -10 -18 -11 -20 0 -10 7 6 18 12 23
12 6 0 0 -7 -12 -16 -12 -8 -27 -12 -34 -8 -6 4 -8 3 -4 -4 3 -6 2 -13 -4 -17
-6 -4 -7 -11 -4 -17 5 -7 1 -9 -9 -5 -9 3 -19 1 -23 -5 -4 -6 -3 -8 4 -4 6 3
13 2 17 -4 3 -5 -2 -10 -12 -11 -10 0 -13 -3 -5 -6 20 -8 14 -22 -8 -18 -11 2
-19 1 -19 -3 4 -27 -3 -52 -12 -46 -7 4 -9 -2 -7 -16 2 -13 -3 -24 -10 -26 -7
-1 -8 0 -2 3 5 2 7 9 4 14 -3 6 -12 2 -20 -8 -17 -23 -18 -36 -1 -28 6 4 3 0
-8 -9 -44 -34 -47 -38 -36 -49 9 -9 6 -16 -11 -28 -20 -15 -20 -19 -8 -35 13
-15 13 -16 1 -9 -11 6 -13 4 -7 -10 5 -14 4 -15 -7 -7 -15 13 -36 -12 -31 -40
1 -11 -3 -15 -13 -11 -13 5 -13 3 -4 -15 8 -15 8 -22 1 -22 -5 0 -10 6 -10 13
-1 6 -6 2 -13 -11 -7 -12 -15 -20 -18 -18 -3 3 -6 -4 -6 -16 -1 -12 -8 -25
-15 -29 -10 -7 -10 -9 -1 -9 15 0 13 -21 -2 -32 -6 -5 -4 -12 5 -18 14 -9 13
-11 -9 -14 -5 0 -13 -5 -18 -10 -5 -5 -3 -6 5 -2 6 4 12 2 12 -5 0 -6 -8 -9
-20 -6 -14 3 -18 1 -13 -6 4 -7 8 -18 10 -26 1 -10 -1 -11 -10 -2 -17 17 -22
14 -25 -15 -1 -15 -8 -34 -15 -42 -10 -13 -9 -14 3 -7 12 7 13 6 3 -6 -10 -12
-10 -18 0 -28 9 -10 8 -11 -7 -5 -16 6 -18 4 -14 -14 4 -13 2 -20 -6 -19 -6 1
-10 -3 -9 -10 2 -7 -4 -10 -12 -7 -10 4 -15 -5 -20 -33 -3 -21 -11 -46 -16
-57 -8 -14 -7 -16 2 -11 8 5 10 4 5 -4 -4 -6 -17 -9 -29 -6 -12 2 -16 2 -9 -1
6 -3 9 -11 6 -16 -5 -7 -2 -8 7 -4 8 4 5 0 -5 -8 -11 -9 -16 -16 -12 -16 5 0
3 -6 -3 -13 -6 -8 -8 -17 -4 -21 14 -13 11 -36 -4 -36 -13 0 -13 -2 -2 -17 12
-14 12 -16 -1 -11 -11 4 -16 -1 -17 -13 -1 -12 3 -17 9 -13 7 4 8 2 4 -5 -4
-6 -11 -9 -15 -7 -22 14 -49 -42 -27 -56 7 -5 3 -8 -9 -8 -17 0 -17 -2 -5 -10
8 -5 10 -10 4 -10 -7 0 -9 -11 -6 -26 4 -21 2 -25 -9 -19 -11 7 -11 5 1 -10 9
-11 10 -16 3 -11 -8 4 -13 1 -13 -9 0 -10 5 -13 12 -9 7 4 8 3 4 -5 -4 -6 -12
-8 -18 -5 -8 5 -9 -1 -5 -17 6 -23 6 -23 -9 -4 -15 19 -15 19 -9 -7 5 -20 2
-29 -13 -37 -15 -8 -18 -18 -15 -46 2 -20 0 -34 -5 -31 -5 3 -7 -7 -5 -22 4
-21 2 -24 -6 -12 -9 13 -11 12 -12 -5 -1 -11 -1 -24 0 -29 1 -4 -4 -15 -11
-24 -11 -13 -11 -14 2 -7 13 8 13 6 2 -8 -8 -9 -11 -21 -7 -27 3 -5 -2 -10
-12 -10 -14 0 -15 -2 -5 -9 8 -4 14 -12 14 -16 0 -4 -6 -12 -14 -16 -7 -5 -8
-9 -2 -9 6 0 11 -7 11 -15 0 -8 -5 -11 -10 -8 -6 4 -8 0 -4 -10 4 -12 1 -17
-11 -18 -14 0 -14 -2 2 -8 18 -7 18 -8 2 -14 -10 -4 -16 -13 -13 -20 2 -6 -3
-18 -12 -25 -15 -12 -15 -13 0 -9 14 5 15 2 5 -18 -7 -16 -13 -20 -18 -12 -5
8 -8 8 -8 1 0 -6 3 -14 7 -18 11 -10 12 -36 2 -36 -4 0 -6 -7 -2 -15 3 -10 1
-15 -7 -13 -8 2 -12 -15 -13 -57 -1 -35 -6 -59 -12 -58 -6 1 -11 -7 -11 -17 0
-10 4 -16 9 -13 5 3 4 -4 -2 -14 -6 -11 -7 -24 -3 -28 4 -5 0 -6 -9 -3 -12 5
-14 0 -11 -24 3 -21 1 -29 -7 -24 -6 4 -11 1 -11 -9 0 -10 4 -13 13 -8 6 4 4
-6 -7 -21 -10 -16 -13 -26 -8 -22 6 3 13 2 16 -3 4 -5 2 -13 -4 -16 -8 -5 -8
-11 0 -20 8 -10 8 -15 0 -20 -8 -5 -8 -10 0 -20 8 -9 8 -15 1 -20 -6 -3 -16
-15 -22 -27 -8 -15 -8 -19 0 -14 6 4 11 3 11 -3 0 -5 -5 -13 -11 -16 -6 -4 -9
-24 -6 -45 2 -22 -2 -44 -9 -55 -17 -24 -18 -39 -1 -29 7 5 7 1 -2 -10 -10
-12 -14 -42 -13 -102 0 -49 -3 -82 -9 -79 -5 3 -6 -2 -2 -11 5 -13 3 -15 -8
-10 -8 4 -5 0 6 -10 20 -16 20 -16 -3 -11 -19 4 -21 3 -11 -9 9 -11 8 -18 -2
-31 -8 -10 -9 -14 -2 -10 8 5 11 -1 8 -20 -2 -16 -4 -30 -5 -33 -2 -3 -1 -9 0
-15 8 -38 8 -45 -2 -45 -7 0 -7 -4 1 -13 8 -10 7 -17 -2 -27 -8 -9 -9 -11 0
-6 8 4 11 -2 8 -21 -2 -16 -4 -30 -5 -33 -2 -3 -1 -9 0 -15 8 -38 8 -45 -2
-45 -7 0 -7 -4 1 -13 8 -10 7 -17 -2 -27 -8 -9 -9 -11 0 -6 8 4 11 -2 8 -21
-2 -16 -4 -30 -5 -33 -2 -3 -1 -9 0 -15 8 -38 8 -45 -2 -45 -7 0 -7 -4 1 -13
8 -10 7 -17 -2 -27 -8 -9 -9 -11 0 -6 8 4 11 -2 8 -21 -2 -16 -4 -30 -5 -33
-2 -3 -1 -9 0 -15 8 -38 8 -45 -3 -45 -7 0 -6 -4 3 -10 13 -9 13 -10 0 -10 -9
0 -11 -3 -4 -8 12 -8 13 -51 1 -69 -5 -7 -4 -13 0 -13 5 0 9 -15 9 -34 0 -19
-3 -33 -7 -30 -4 2 -6 -4 -4 -13 1 -10 8 -17 16 -15 10 3 10 0 -1 -12 -7 -9
-9 -16 -4 -16 5 0 2 -5 -6 -10 -12 -8 -12 -10 -1 -10 10 0 11 -3 2 -14 -12
-14 3 -34 24 -31 18 3 70 16 85 23 8 3 20 7 25 8 49 8 74 18 68 27 -3 6 -1 7
5 3 6 -4 27 0 47 8 19 8 35 12 35 9 0 -3 7 0 15 7 8 7 15 10 15 6 0 -4 11 1
25 10 14 9 25 14 25 11 0 -4 20 2 44 13 24 10 47 16 50 13 3 -4 6 -1 6 6 0 7
5 9 10 6 6 -3 10 -1 10 6 0 7 3 9 7 6 3 -4 12 -2 20 4 7 6 13 9 13 5 0 -4 17
2 39 13 21 11 41 17 45 14 3 -4 6 -1 6 5 0 7 3 11 8 10 4 0 27 8 52 20 25 12
51 22 58 22 6 0 12 5 12 11 0 6 6 9 14 6 8 -3 16 -2 18 3 2 5 10 10 18 12 8 2
17 5 20 8 3 3 30 16 60 30 30 14 61 31 68 38 8 7 18 10 23 7 5 -4 9 -1 9 4 0
6 6 11 14 11 8 0 22 7 30 16 9 8 16 13 16 10 0 -4 18 5 40 19 22 14 44 25 50
25 5 0 10 5 10 12 0 6 3 9 6 5 4 -3 26 7 50 23 23 17 47 30 53 30 6 0 11 5 11
10 0 6 6 10 14 10 8 0 21 6 28 14 8 7 29 21 48 31 19 10 40 24 48 31 7 8 17
14 21 14 4 0 21 11 36 24 16 14 32 23 37 20 4 -3 8 -1 8 4 0 5 26 26 58 47 56
37 65 44 110 85 12 11 25 20 30 20 4 1 17 10 30 20 12 11 27 20 33 20 5 0 7 5
4 10 -3 6 -1 10 5 10 19 0 211 165 356 306 34 34 65 59 68 56 3 -3 6 -1 6 5 0
5 42 53 94 106 51 54 91 97 89 97 -3 0 16 20 40 45 25 25 44 45 41 45 -6 0 28
40 54 63 12 11 22 24 22 29 0 4 16 24 35 44 19 20 32 41 28 46 -3 7 -1 8 5 4
7 -4 12 -3 12 3 0 5 6 16 13 23 7 7 24 29 37 48 13 19 30 41 37 48 7 7 20 26
30 42 9 17 20 30 24 30 4 0 12 14 19 30 7 17 16 30 21 30 5 0 9 7 9 15 0 7 7
18 16 23 9 5 16 13 17 18 2 16 32 64 40 64 5 0 5 5 2 10 -3 6 -1 10 4 10 6 0
11 7 11 15 0 8 4 15 10 15 5 0 12 11 16 25 3 14 10 25 15 25 5 0 9 7 9 15 0 8
5 15 10 15 6 0 10 9 10 20 0 11 3 20 8 20 4 0 21 26 37 57 17 32 36 64 43 71
7 8 10 18 7 23 -4 5 -1 9 4 9 6 0 11 7 11 15 0 8 4 15 10 15 5 0 9 3 8 8 -2
13 32 82 42 82 5 0 7 7 4 15 -4 8 -1 15 6 15 6 0 9 4 5 9 -3 5 1 15 8 23 8 7
17 26 21 41 3 15 11 25 15 22 5 -3 7 4 4 15 -3 11 0 20 6 20 6 0 11 7 11 15 0
8 5 15 11 15 5 0 7 4 4 10 -3 5 0 20 7 32 7 13 13 25 13 28 3 9 26 64 42 98 9
19 16 40 16 48 0 8 4 14 9 14 5 0 6 5 3 10 -3 6 -2 10 2 10 5 0 9 10 10 22 1
11 8 25 15 29 10 7 10 9 -2 9 -13 0 -13 2 -1 9 8 5 16 17 17 26 1 9 6 24 10
33 11 25 11 24 19 60 4 17 11 32 16 32 5 0 6 7 3 15 -4 8 -1 15 5 15 6 0 8 6
5 14 -3 8 -1 17 5 20 6 4 8 13 4 21 -3 8 0 15 6 15 6 0 10 3 9 8 -3 15 14 82
22 82 4 0 6 11 5 25 -2 14 1 25 6 25 6 0 7 5 4 10 -4 6 -1 17 5 25 6 8 9 19 5
25 -4 6 -2 16 3 23 5 7 15 37 22 67 7 30 17 63 22 73 6 11 5 17 -3 17 -8 0 -8
4 -1 13 10 12 24 68 23 100 0 9 3 17 7 17 4 0 7 12 6 28 -1 15 2 32 7 38 5 6
7 20 5 31 -3 11 2 32 9 47 8 14 10 26 5 26 -6 0 -6 9 0 24 5 13 6 27 3 30 -4
3 -2 6 3 6 5 0 10 17 10 38 1 20 5 66 9 102 4 36 8 82 9 102 0 21 4 38 8 38 4
0 5 9 3 20 -2 11 0 22 6 25 5 4 6 13 0 24 -6 10 -6 23 -1 31 5 9 5 19 -1 26
-6 7 -6 14 -1 18 14 8 14 564 1 589 -8 14 -8 18 0 13 12 -8 15 6 5 17 -10 9
-11 77 -1 77 4 0 7 5 7 11 0 5 -5 7 -12 3 -7 -5 -9 -2 -5 8 3 9 0 21 -6 28 -9
10 -9 11 2 5 10 -6 12 -4 6 5 -4 6 -9 33 -11 59 -3 25 -7 64 -9 86 -3 22 -8
64 -11 93 -6 56 -11 87 -14 87 -1 0 -4 18 -6 40 -5 52 -8 68 -15 80 -4 6 -5
20 -4 33 1 12 -2 22 -6 22 -4 0 -6 11 -4 25 2 22 -13 49 -16 28z m-825 -444
c-3 -5 -10 -7 -15 -3 -5 3 -7 10 -3 15 3 5 10 7 15 3 5 -3 7 -10 3 -15z m-779
-559 c3 -5 -1 -10 -10 -10 -9 0 -13 5 -10 10 3 6 8 10 10 10 2 0 7 -4 10 -10z
m-220 -240 c-3 -5 -13 -6 -21 -3 -12 4 -13 8 -3 14 15 9 32 2 24 -11z m-251
-242 c-3 -4 -12 -8 -20 -8 -8 0 -13 4 -10 8 3 5 12 9 20 9 8 0 13 -4 10 -9z
m-96 -103 c-3 -3 -9 2 -12 12 -6 14 -5 15 5 6 7 -7 10 -15 7 -18z m-83 -75 c4
-6 1 -9 -7 -8 -7 2 -12 -3 -10 -10 1 -8 -2 -11 -8 -7 -8 5 -7 11 1 21 14 17
16 17 24 4z m-388 -592 c2 -17 0 -19 -7 -8 -5 8 -6 18 -4 22 8 12 10 10 11
-14z m-210 -333 c0 -8 -4 -12 -9 -9 -5 3 -6 10 -3 15 9 13 12 11 12 -6z m-549
-1480 c-3 -3 -9 2 -12 12 -6 14 -5 15 5 6 7 -7 10 -15 7 -18z"/>
<path d="M7086 10082 c-2 -4 -1 -14 4 -22 7 -11 9 -9 7 8 -1 24 -3 26 -11 14z"/>
<path d="M13436 10081 c-4 -5 -2 -12 3 -15 5 -4 12 -2 15 3 4 5 2 12 -3 15 -5
4 -12 2 -15 -3z"/>
<path d="M6925 9921 c-3 -5 -2 -12 3 -15 5 -3 9 1 9 9 0 17 -3 19 -12 6z"/>
<path d="M13050 9779 c0 -5 5 -7 10 -4 6 3 10 8 10 11 0 2 -4 4 -10 4 -5 0
-10 -5 -10 -11z"/>
<path d="M12900 9649 c0 -5 5 -7 10 -4 6 3 10 8 10 11 0 2 -4 4 -10 4 -5 0
-10 -5 -10 -11z"/>
<path d="M12795 9550 c4 -6 11 -8 16 -5 14 9 11 15 -7 15 -8 0 -12 -5 -9 -10z"/>
<path d="M6517 9522 c-10 -10 -17 -23 -17 -28 0 -5 5 -1 11 9 6 9 14 15 18 13
4 -3 8 1 8 9 0 19 -1 19 -20 -3z"/>
<path d="M12580 9329 c0 -5 5 -7 10 -4 6 3 10 8 10 11 0 2 -4 4 -10 4 -5 0
-10 -5 -10 -11z"/>
<path d="M12420 9169 c0 -5 5 -7 10 -4 6 3 10 8 10 11 0 2 -4 4 -10 4 -5 0
-10 -5 -10 -11z"/>
<path d="M6035 9160 c-3 -5 -1 -10 4 -10 6 0 11 5 11 10 0 6 -2 10 -4 10 -3 0
-8 -4 -11 -10z"/>
<path d="M5976 9121 c-3 -5 1 -11 9 -14 9 -4 12 -1 8 9 -6 16 -10 17 -17 5z"/>
<path d="M12080 8760 c-9 -6 -10 -10 -3 -10 6 0 15 5 18 10 8 12 4 12 -15 0z"/>
<path d="M5013 8585 c0 -8 4 -12 9 -9 5 3 6 10 3 15 -9 13 -12 11 -12 -6z"/>
<path d="M11940 8589 c0 -5 -5 -7 -12 -3 -7 4 -8 3 -4 -5 6 -9 11 -9 22 0 17
14 18 19 4 19 -5 0 -10 -5 -10 -11z"/>
<path d="M11873 8515 c0 -8 4 -12 9 -9 5 3 6 10 3 15 -9 13 -12 11 -12 -6z"/>
<path d="M4855 8380 c6 -9 0 -11 -23 -8 -26 4 -29 2 -20 -9 9 -11 8 -13 -3
-11 -8 2 -18 8 -22 13 -5 6 -6 -1 -2 -15 3 -14 7 -32 7 -40 0 -8 5 -20 10 -27
5 -7 7 -16 4 -21 -3 -5 1 -17 8 -28 8 -10 12 -24 9 -31 -3 -7 -1 -13 5 -13 6
0 8 -9 5 -20 -3 -12 0 -20 8 -20 7 0 10 -3 7 -6 -4 -3 5 -38 19 -77 13 -40 26
-80 28 -90 2 -9 7 -22 10 -27 3 -5 8 -20 10 -32 3 -13 9 -24 15 -26 6 -2 8 -8
5 -13 -3 -4 1 -21 9 -37 8 -16 12 -32 9 -36 -4 -3 -1 -6 6 -6 8 0 11 -7 7 -15
-3 -8 -2 -15 3 -15 5 0 12 -11 15 -24 3 -13 16 -46 28 -73 12 -26 21 -51 20
-55 -1 -5 3 -8 10 -8 6 0 8 -3 5 -6 -3 -4 -1 -16 5 -28 7 -11 13 -23 13 -26 1
-3 11 -24 23 -46 11 -23 18 -44 15 -48 -4 -3 -2 -6 4 -6 9 0 17 -15 21 -43 1
-4 8 -15 17 -23 8 -9 13 -19 10 -24 -3 -5 -2 -10 2 -12 5 -1 22 -30 39 -63 60
-114 80 -150 107 -192 15 -24 27 -47 27 -53 0 -5 3 -10 8 -10 4 0 16 -18 26
-40 11 -22 23 -40 28 -40 5 0 7 -4 4 -9 -4 -5 -3 -11 1 -13 12 -5 53 -66 53
-78 0 -5 5 -10 10 -10 6 0 10 -7 10 -15 0 -8 5 -15 10 -15 6 0 10 -4 10 -10 0
-9 43 -71 86 -123 8 -9 14 -19 14 -22 0 -5 27 -39 53 -67 9 -10 17 -21 17 -25
0 -5 12 -19 25 -32 14 -13 24 -26 21 -28 -2 -2 6 -14 18 -27 11 -12 40 -44 63
-71 69 -80 115 -133 161 -181 23 -25 42 -47 42 -48 0 -5 216 -216 249 -243 19
-16 53 -46 76 -68 23 -22 60 -54 81 -71 22 -18 52 -44 67 -58 15 -14 32 -26
36 -26 4 0 22 -12 39 -27 17 -16 36 -32 44 -38 77 -59 94 -70 101 -67 4 1 7
-5 7 -15 0 -9 3 -13 7 -10 3 4 25 -9 49 -28 23 -19 47 -35 53 -35 6 0 11 -4
11 -10 0 -5 7 -10 15 -10 8 0 15 -4 15 -10 0 -5 4 -10 9 -10 5 0 43 -22 84
-50 41 -27 80 -50 86 -50 6 0 11 -4 11 -10 0 -5 5 -10 11 -10 6 0 31 -13 56
-30 24 -16 46 -30 49 -30 3 0 32 -15 64 -34 32 -19 61 -32 64 -29 3 4 6 2 6
-3 0 -6 16 -16 35 -24 19 -8 35 -18 35 -22 0 -5 4 -7 9 -3 5 3 16 -2 25 -10 8
-9 19 -16 23 -17 27 -4 43 -11 43 -19 0 -5 3 -8 8 -7 14 4 52 -13 52 -23 0 -6
4 -8 8 -5 5 3 25 -4 45 -14 21 -11 37 -18 37 -15 0 3 15 -4 33 -15 17 -11 40
-20 50 -20 9 0 17 -5 17 -11 0 -6 7 -9 15 -5 8 3 15 2 15 -3 0 -8 79 -36 93
-33 4 1 7 -3 7 -8 0 -6 6 -10 13 -9 20 2 57 -13 57 -24 0 -6 3 -8 6 -4 4 3 22
0 40 -8 19 -8 34 -11 34 -8 0 3 7 0 15 -7 8 -7 15 -9 15 -5 0 4 6 3 13 -3 6
-5 23 -12 37 -14 14 -1 28 -7 31 -12 4 -5 18 -8 33 -8 14 0 26 -5 26 -10 0 -6
9 -8 20 -5 11 3 20 1 20 -5 0 -6 9 -8 19 -5 11 3 22 -1 25 -9 3 -7 12 -11 20
-8 8 3 21 2 28 -2 7 -5 21 -10 30 -11 9 -2 35 -9 57 -17 29 -9 42 -10 45 -2 3
7 5 6 5 -2 1 -7 6 -10 11 -7 6 3 10 2 10 -2 0 -5 10 -9 23 -10 12 -1 33 -4 47
-7 61 -16 158 -35 200 -41 14 -2 26 -4 28 -5 3 -3 35 -7 68 -9 15 -1 23 -5 18
-12 -4 -8 0 -8 15 0 15 8 21 9 21 1 0 -6 3 -9 8 -7 4 3 32 1 62 -4 30 -5 82
-11 115 -14 85 -7 85 -7 85 -19 0 -7 3 -8 8 -1 9 14 65 14 74 0 5 -6 8 -6 8 2
0 7 7 10 15 7 8 -4 13 -9 11 -13 -2 -3 11 -6 30 -6 19 0 34 3 34 8 0 4 5 7 11
7 5 0 8 -3 6 -7 -3 -5 6 -8 19 -8 13 0 24 3 24 8 0 4 5 7 11 7 5 0 8 -4 4 -9
-3 -6 6 -6 25 -1 19 5 28 5 25 -1 -4 -5 -1 -9 4 -9 6 0 11 5 11 11 0 8 4 8 13
0 10 -8 17 -7 27 2 10 9 11 9 6 -1 -6 -10 14 -12 98 -11 73 1 103 5 99 13 -3
6 0 5 8 -1 17 -17 32 -17 23 0 -5 8 -2 8 9 -2 11 -8 17 -9 17 -2 0 7 8 8 25 1
15 -6 26 -6 30 0 4 7 13 6 26 0 13 -8 19 -7 19 0 0 8 6 8 20 0 14 -7 20 -7 20
0 0 5 5 10 11 10 5 0 8 -4 5 -8 -3 -5 1 -9 9 -9 8 0 15 3 15 7 0 3 8 6 18 7 9
1 29 4 45 7 18 4 27 2 27 -6 0 -8 3 -9 8 -3 10 13 62 17 62 4 0 -6 7 -4 15 4
9 10 32 14 65 13 27 -1 50 2 50 7 0 5 17 7 38 6 21 -2 43 0 49 4 6 4 33 10 60
13 26 3 62 8 78 10 17 3 45 6 62 7 18 1 33 6 33 10 0 5 10 7 23 6 12 -2 32 2
43 9 12 6 24 9 27 5 4 -3 14 0 24 8 14 12 16 12 8 0 -6 -11 -5 -12 6 -5 8 4
23 10 34 12 37 7 40 8 53 15 6 5 12 6 12 2 0 -3 9 -1 20 5 15 8 20 8 20 -2 1
-15 17 9 22 32 2 8 8 19 13 23 6 5 3 6 -7 3 -10 -3 -26 -9 -35 -12 -14 -4 -15
-4 -4 4 16 11 6 52 -12 52 -7 0 -14 12 -15 28 -1 15 -7 37 -14 50 -10 19 -9
25 2 33 11 8 9 9 -8 4 -20 -6 -21 -4 -12 19 5 14 6 25 2 25 -19 -3 -30 2 -36
17 -5 12 -3 14 7 8 7 -5 4 -1 -7 9 -11 10 -20 27 -21 38 -1 11 -8 25 -15 32
-10 10 -10 7 0 -13 8 -17 9 -21 1 -14 -6 6 -13 20 -16 32 -2 11 -8 30 -14 41
-7 13 -8 22 -1 26 5 3 10 12 10 18 0 7 -4 6 -10 -3 -7 -11 -10 -11 -10 -2 0 7
-4 11 -8 8 -4 -2 -9 7 -10 20 -1 17 2 23 10 18 7 -4 8 -3 4 4 -4 6 -13 9 -20
6 -7 -3 -19 3 -27 13 -12 16 -12 17 2 6 13 -11 15 -9 13 10 -1 12 -3 25 -3 30
-1 4 -6 7 -12 7 -8 0 -7 -6 2 -17 11 -15 10 -15 -9 1 -20 18 -21 20 -4 32 16
12 16 12 -2 11 -23 -2 -43 52 -23 65 7 4 7 8 2 8 -6 0 -17 -6 -24 -12 -9 -9
-12 -9 -7 -1 3 6 -6 21 -20 32 -15 12 -22 21 -17 21 5 0 15 -6 23 -12 12 -11
12 -10 2 4 -10 13 -10 17 0 22 7 3 3 3 -9 0 -15 -3 -23 1 -28 16 -3 11 -13 27
-22 36 -14 13 -14 17 -2 25 10 7 5 8 -16 4 -16 -3 -24 -2 -17 1 8 4 6 11 -10
26 -13 11 -17 16 -10 13 11 -6 12 -3 3 12 -6 11 -7 24 -3 28 4 5 1 5 -5 1 -7
-4 -13 -2 -13 4 0 6 -5 8 -11 4 -7 -4 -10 -1 -7 7 3 8 -2 20 -11 27 -9 8 -10
11 -3 7 6 -3 12 -1 12 4 0 6 -5 11 -11 11 -8 0 -7 6 2 17 10 11 10 14 2 9 -8
-4 -13 -2 -13 4 0 6 -5 8 -10 5 -13 -8 -9 17 5 28 6 5 3 7 -7 4 -9 -3 -22 2
-30 11 -8 10 -8 13 -1 9 6 -4 15 -2 19 4 4 7 3 10 -2 6 -5 -3 -20 1 -34 10
-14 8 -17 12 -8 9 12 -3 15 -1 11 9 -3 8 -10 12 -16 8 -6 -4 -8 0 -5 9 4 8 2
21 -4 29 -8 11 -9 11 -4 -3 3 -10 0 -20 -6 -24 -7 -4 -8 -3 -4 4 4 7 -4 23
-18 37 -25 25 -22 36 4 13 12 -11 12 -10 2 3 -6 9 -9 19 -5 23 4 4 0 4 -10 0
-10 -3 -17 -1 -17 5 0 6 5 11 12 11 6 0 8 3 5 6 -4 4 -14 1 -23 -7 -16 -13
-16 -12 -5 9 6 12 8 22 4 21 -4 -1 -15 -1 -23 0 -13 1 -13 2 0 11 11 7 11 10
2 10 -7 0 -10 5 -6 12 4 6 3 9 -2 5 -5 -3 -18 2 -29 10 -20 16 -20 16 0 9 19
-6 19 -5 3 8 -19 14 -23 31 -10 39 4 2 0 2 -8 0 -30 -9 -32 -8 -35 10 -2 9 1
15 6 11 5 -3 6 -11 3 -17 -4 -7 -3 -8 1 -4 19 17 13 35 -11 32 -20 -2 -22 0
-12 12 9 11 8 13 -3 11 -8 -2 -13 3 -11 11 3 12 0 12 -12 2 -13 -11 -15 -9
-11 11 4 21 3 22 -9 5 -9 -12 -16 -14 -21 -8 -3 6 -1 11 4 11 6 0 11 5 11 11
0 6 -7 8 -16 5 -12 -5 -14 -1 -8 16 6 20 5 21 -10 9 -9 -8 -19 -11 -23 -7 -3
3 -1 6 6 6 7 0 9 5 6 10 -3 6 -1 10 6 10 7 0 9 3 6 6 -4 4 -13 2 -20 -5 -12
-9 -14 -6 -12 14 2 16 -1 23 -8 18 -6 -4 -8 0 -4 10 6 16 -15 41 -26 30 -4 -3
-7 -1 -7 5 0 7 -5 12 -11 12 -5 0 -7 -5 -3 -12 4 -7 3 -8 -5 -4 -9 6 -9 11 1
24 11 13 10 15 -4 9 -13 -4 -18 -1 -18 9 0 10 -6 14 -15 10 -8 -3 -14 -2 -14
2 4 25 -3 42 -18 42 -15 0 -14 2 3 15 16 13 17 14 1 9 -10 -4 -17 -2 -15 2 2
5 -7 22 -19 37 -19 24 -22 25 -20 8 0 -11 5 -17 11 -14 5 4 6 1 2 -6 -13 -20
-22 -3 -28 51 -1 9 -6 14 -10 12 -5 -3 -6 -9 -4 -13 3 -4 -1 -8 -9 -8 -8 0
-12 4 -10 8 3 4 -7 14 -20 23 -14 9 -23 21 -20 26 3 6 -5 15 -19 21 -14 7 -23
16 -20 20 3 5 -2 9 -10 9 -9 0 -16 9 -16 20 0 11 -4 20 -9 20 -5 0 -13 9 -16
21 -4 11 -9 18 -12 15 -3 -3 2 -18 11 -33 l17 -28 -22 25 c-12 14 -26 24 -32
22 -6 -2 -5 3 2 11 9 12 7 19 -13 35 -14 10 -22 23 -18 28 4 5 0 3 -8 -3 -11
-8 -20 -9 -30 -1 -12 8 -11 9 5 4 19 -6 19 -5 3 8 -10 7 -18 18 -18 25 0 6 -5
11 -11 11 -5 0 -7 -4 -4 -10 3 -6 -1 -7 -10 -3 -9 3 -13 9 -8 12 4 3 9 12 11
20 3 12 0 12 -12 2 -12 -10 -17 -9 -26 9 -6 12 -16 18 -23 13 -9 -5 -8 -2 1 9
10 13 9 18 -5 29 -9 8 -14 9 -10 2 4 -6 4 -14 -1 -17 -4 -2 -9 7 -10 20 -1 17
2 23 10 18 7 -5 8 -3 4 5 -5 7 -11 10 -14 7 -3 -3 -14 2 -25 11 -11 10 -17 13
-14 6 4 -6 3 -14 -2 -17 -5 -4 -8 5 -7 19 3 20 0 23 -14 15 -15 -8 -17 -6 -13
13 3 16 2 18 -5 9 -7 -10 -11 -6 -15 17 -5 25 -12 31 -32 31 -14 0 -25 5 -25
11 0 5 -6 7 -12 3 -7 -4 -10 -4 -6 1 4 4 2 15 -4 24 -7 9 0 5 15 -8 32 -29 37
-21 6 8 -17 15 -26 18 -40 10 -17 -8 -19 -6 -19 21 0 19 -4 29 -10 25 -6 -4
-8 -11 -5 -16 3 -5 -1 -6 -10 -3 -11 5 -15 14 -11 27 4 15 2 17 -7 8 -16 -16
-30 -14 -23 5 4 11 2 15 -8 11 -8 -3 -17 1 -20 10 -4 9 -13 13 -22 9 -8 -3
-12 -2 -9 3 3 5 -4 12 -15 16 -11 3 -20 10 -20 15 0 4 -10 6 -22 3 -20 -4 -21
-3 -5 7 9 6 17 16 17 23 0 8 -3 7 -9 -2 -7 -11 -15 -11 -37 -2 l-29 11 30 -5
30 -4 -32 14 c-17 8 -34 19 -38 25 -3 6 -11 7 -17 4 -6 -4 -5 2 1 15 7 12 8
21 4 20 -25 -4 -42 2 -37 15 4 11 -1 14 -20 12 -15 -2 -23 1 -19 7 4 6 0 8
-11 4 -10 -4 -15 -3 -11 3 3 6 1 10 -4 10 -6 0 -11 7 -11 15 0 8 -4 15 -10 15
-5 0 -8 -6 -6 -12 1 -7 1 -10 -1 -5 -3 4 -8 5 -13 2 -5 -3 -7 3 -5 12 4 26 -5
36 -20 23 -10 -9 -16 -5 -27 17 -7 15 -22 29 -32 31 -13 3 -16 0 -11 -10 5 -7
-9 3 -30 22 -21 19 -35 28 -31 20 4 -8 1 -7 -7 3 -15 18 -16 18 -26 0 -9 -15
-10 -12 -7 17 3 19 3 29 0 22 -5 -10 -9 -10 -20 -1 -17 14 -19 -2 -1 -21 6 -8
2 -6 -10 4 -12 10 -22 21 -21 25 2 18 -4 22 -17 11 -12 -10 -13 -8 -10 10 4
18 2 20 -11 9 -12 -10 -13 -9 -8 5 5 12 2 15 -12 9 -13 -5 -16 -3 -11 9 4 12
0 15 -19 13 -17 -1 -24 2 -20 10 7 19 -5 27 -21 14 -10 -9 -13 -8 -13 1 0 7
-7 10 -16 6 -8 -3 -13 -2 -11 2 3 4 -2 14 -11 21 -14 13 -15 12 -9 -8 4 -18 3
-20 -9 -10 -7 6 -11 15 -8 20 3 5 -3 6 -12 2 -12 -4 -15 -3 -10 6 5 8 3 12 -5
10 -28 -3 -38 1 -44 21 -4 11 -11 18 -16 15 -5 -4 -9 2 -9 12 0 15 -2 16 -10
3 -9 -13 -10 -13 -11 0 -1 8 -1 19 0 24 1 5 -6 3 -15 -5 -12 -9 -15 -9 -10 -1
4 6 2 12 -3 12 -6 0 -10 3 -10 8 3 19 -2 23 -15 13 -11 -9 -16 -9 -22 0 -5 8
-3 10 7 4 8 -5 11 -5 7 0 -5 5 -22 10 -40 12 -18 2 -36 10 -40 18 -5 8 -15 12
-25 8 -12 -5 -14 -3 -8 7 6 10 4 12 -9 7 -11 -5 -15 -3 -10 5 5 8 2 9 -11 4
-16 -6 -16 -4 -4 11 9 11 10 14 2 9 -7 -4 -13 -2 -13 4 0 7 -6 8 -17 2 -12 -7
-21 -4 -36 12 -10 11 -16 14 -12 6 4 -8 -3 -4 -14 9 -19 21 -21 21 -21 5 -1
-18 -1 -18 -14 -2 -10 13 -15 15 -24 6 -9 -9 -12 -9 -12 0 0 6 -7 9 -15 6 -10
-4 -15 0 -16 12 0 11 -3 14 -6 7 -2 -7 -9 -13 -14 -13 -6 0 -7 6 -3 13 6 8 3
8 -9 -1 -14 -12 -17 -10 -23 14 -7 25 -8 26 -15 9 -7 -18 -8 -18 -8 4 -1 20
-3 22 -17 11 -12 -11 -15 -11 -12 0 2 8 -2 14 -9 15 -6 0 -15 3 -19 8 -12 12
-46 8 -38 -5 4 -7 3 -8 -5 -4 -8 5 -9 12 -2 20 7 8 4 12 -10 12 -10 0 -19 -5
-19 -10 0 -5 -7 -1 -16 10 -8 10 -13 13 -9 7 4 -9 1 -11 -9 -7 -9 3 -16 10
-16 15 0 5 -3 8 -7 8 -22 -4 -33 2 -27 14 5 7 2 7 -10 -2 -15 -12 -17 -12 -14
0 2 9 -5 14 -20 13 -17 -1 -22 3 -18 15 5 13 3 13 -8 -2 -13 -16 -14 -16 -20
-1 -4 9 -9 14 -13 11 -3 -4 -13 -1 -21 6 -9 6 -13 7 -9 1 3 -6 0 -11 -8 -11
-8 0 -12 3 -10 7 2 4 -7 12 -20 18 -21 10 -23 9 -19 -6 4 -11 -2 -8 -16 8 -12
14 -20 21 -17 15 3 -5 -6 -11 -19 -11 -21 -2 -23 0 -9 10 16 11 11 12 -72 17
-14 1 -23 8 -23 17 0 8 -3 12 -7 9 -3 -4 -16 1 -27 10 -20 17 -20 17 -7 0 12
-15 12 -18 0 -15 -7 2 -20 9 -27 16 -7 6 -25 10 -38 8 -29 -6 -56 2 -49 14 3
5 0 12 -6 16 -7 4 -9 3 -5 -4 3 -6 2 -13 -4 -17 -5 -3 -10 1 -10 9 0 9 -3 15
-7 15 -5 -1 -15 -1 -23 0 -13 1 -13 2 0 11 9 6 10 10 3 10 -6 0 -15 -5 -18
-10 -4 -7 -13 -7 -25 0 -11 6 -31 8 -45 6 -14 -3 -25 0 -25 6 0 5 -7 7 -15 4
-9 -3 -18 0 -20 7 -4 8 -26 12 -65 11 -53 -1 -59 0 -48 14 11 13 10 14 -9 3
-21 -11 -27 -8 -24 12 1 5 -4 5 -11 1 -21 -13 -42 -14 -50 -1 -6 9 -10 9 -17
-2 -6 -9 -11 -10 -15 -2 -4 6 -20 11 -37 11 -16 0 -29 5 -29 11 0 7 -11 9 -26
6 -16 -3 -28 0 -31 8 -2 8 -11 16 -19 19 -8 3 -13 2 -10 -3 3 -4 -8 -8 -24 -7
-17 1 -30 6 -30 11 0 7 -3 7 -8 0 -9 -13 -35 -19 -28 -6 3 5 -2 15 -11 22 -12
10 -14 10 -9 2 4 -8 1 -13 -9 -13 -9 0 -14 4 -11 8 3 5 -1 9 -9 9 -8 0 -11 -5
-8 -10 4 -6 1 -7 -8 -2 -7 5 -27 8 -44 8 -119 -5 -138 -4 -147 9 -6 10 -8 10
-8 1 0 -7 -5 -13 -11 -13 -5 0 -7 5 -3 12 5 8 2 9 -9 5 -9 -3 -19 -2 -22 3 -3
5 -19 7 -35 5 -22 -3 -29 -1 -23 8 5 9 3 9 -8 0 -21 -17 -22 -17 -48 -4 -14 8
-21 9 -17 2 8 -13 -42 -10 -63 4 -9 5 -12 4 -8 -1 7 -12 -114 -11 -133 1 -8 5
-11 4 -7 -2 9 -14 -65 -12 -75 2 -5 7 -8 7 -8 0 0 -11 -124 -14 -135 -3 -6 5
-37 -5 -51 -16 0 -1 -9 6 -19 14 -11 8 -16 10 -13 5 8 -12 -152 -12 -172 0 -8
5 -11 4 -7 -2 9 -14 -65 -12 -75 2 -5 7 -8 7 -8 0 0 -11 -124 -14 -135 -3 -4
4 -15 3 -24 -1 -21 -12 -32 -11 -55 1 -14 8 -17 7 -11 -2z m4490 -1480 c3 -5
1 -10 -4 -10 -6 0 -11 5 -11 10 0 6 2 10 4 10 3 0 8 -4 11 -10z m194 -193 c8
-10 7 -14 -2 -14 -8 0 -14 6 -14 14 0 7 1 13 2 13 2 0 8 -6 14 -13z m256 -256
c3 -5 2 -12 -3 -15 -5 -3 -9 1 -9 9 0 17 3 19 12 6z m130 -150 c3 -5 2 -12 -3
-15 -5 -3 -9 1 -9 9 0 17 3 19 12 6z"/>
<path d="M6990 8190 c0 -5 5 -10 11 -10 5 0 7 5 4 10 -3 6 -8 10 -11 10 -2 0
-4 -4 -4 -10z"/>
<path d="M8220 7696 c0 -2 7 -9 15 -16 9 -7 15 -8 15 -2 0 5 -7 12 -15 16 -8
3 -15 4 -15 2z"/>
<path d="M11390 7640 c-13 -8 -12 -10 3 -10 9 0 17 5 17 10 0 12 -1 12 -20 0z"/>
<path d="M8626 7458 c3 -5 10 -6 15 -3 13 9 11 12 -6 12 -8 0 -12 -4 -9 -9z"/>
<path d="M8910 7260 c0 -6 7 -10 15 -10 8 0 15 2 15 4 0 2 -7 6 -15 10 -8 3
-15 1 -15 -4z"/>
<path d="M9410 6845 c0 -5 5 -17 10 -25 5 -8 10 -10 10 -5 0 6 -5 17 -10 25
-5 8 -10 11 -10 5z"/>
<path d="M9650 6599 c0 -5 5 -7 10 -4 6 3 10 8 10 11 0 2 -4 4 -10 4 -5 0 -10
-5 -10 -11z"/>
<path d="M9685 6561 c-6 -10 33 -36 42 -28 2 3 -5 8 -18 12 -17 6 -19 9 -8 16
9 6 10 9 2 9 -6 0 -14 -4 -18 -9z"/>
</g>
</svg>
